<svg width="32" height="32" viewBox="0 0 32 32" xmlns="http://www.w3.org/2000/svg">
  <defs>
    <!-- Light background for dark theme -->
    <linearGradient id="lightBgGradient" x1="0%" y1="0%" x2="100%" y2="100%">
      <stop offset="0%" style="stop-color:#FCFCF9;stop-opacity:1" />
      <stop offset="100%" style="stop-color:#F5F5F3;stop-opacity:1" />
    </linearGradient>
    
    <radialGradient id="lightInnerShadow" cx="30%" cy="30%" r="70%">
      <stop offset="0%" style="stop-color:#FFFFFF;stop-opacity:0.3" />
      <stop offset="100%" style="stop-color:#E5E5E3;stop-opacity:0.1" />
    </radialGradient>
    
    <filter id="darkStarGlow">
      <feGaussianBlur stdDeviation="1" result="coloredBlur"/>
      <feMerge> 
        <feMergeNode in="coloredBlur"/>
        <feMergeNode in="SourceGraphic"/>
      </feMerge>
    </filter>
  </defs>
  
  <!-- Light background circle for dark theme -->
  <circle cx="16" cy="16" r="15" fill="url(#lightBgGradient)" stroke="#E5E5E3" stroke-width="0.5"/>
  <circle cx="16" cy="16" r="14.5" fill="url(#lightInnerShadow)"/>
  
  <!-- Dark RSS feed waves -->
  <g stroke="#21808D" fill="none" stroke-linecap="round" stroke-linejoin="round">
    <circle cx="7" cy="25" r="1.5" fill="#21808D"/>
    <path d="M7 22 A3 3 0 0 1 10 25" stroke-width="1.5" opacity="0.9"/>
    <path d="M7 19 A6 6 0 0 1 13 25" stroke-width="1.2" opacity="0.7"/>
    <path d="M7 16 A9 9 0 0 1 16 25" stroke-width="1" opacity="0.5"/>
  </g>
  
  <!-- Dark play button -->
  <g fill="#21808D">
    <circle cx="16" cy="16" r="8" fill="#21808D" opacity="0.1"/>
    <polygon points="13,11 13,21 21,16" fill="#21808D"/>
  </g>
  
  <!-- Orange star (same color works on light background) -->
  <g filter="url(#darkStarGlow)">
    <polygon points="25,7 25.8,9.2 28,9.2 26.1,10.6 26.9,12.8 25,11.4 23.1,12.8 23.9,10.6 22,9.2 24.2,9.2" 
             fill="#F59E0B" stroke="#D97706" stroke-width="0.2"/>
  </g>
  
  <g fill="#F59E0B" opacity="0.6">
    <circle cx="26" cy="6" r="0.8"/>
    <circle cx="28" cy="8" r="0.6"/>
  </g>
</svg>